<svg xmlns="http://www.w3.org/2000/svg" version="1.1" xmlns:xlink="http://www.w3.org/1999/xlink" xmlns:svgjs="http://svgjs.dev/svgjs" viewBox="0 0 15.679703416466577 14.090537434586897"><g transform="matrix(1,0,0,1,1.2383044670223509,10.824302108189547)"><g><path d=" M 0.024 1.188 L 0.024 0.9299999999999999 L 0.1395 0.9299999999999999 L 0.3405 0.28049999999999997 L 0.1875 0.28049999999999997 L 0.1875 0.022499999999999964 L 0.9135 0.022499999999999964 L 1.173 0.9299999999999999 L 1.2885 0.9299999999999999 L 1.2885 1.188 L 0.633 1.188 L 0.633 0.9299999999999999 L 0.7275 0.9299999999999999 L 0.6960000000000001 0.8054999999999999 L 0.432 0.8054999999999999 L 0.399 0.9299999999999999 L 0.5385 0.9299999999999999 L 0.5385 1.188 L 0.024 1.188 M 0.46950000000000003 0.6285 L 0.6615 0.6285 L 0.5760000000000001 0.27149999999999996 L 0.46950000000000003 0.6285 M 1.38301318359375 1.188 L 1.38301318359375 0.9255 L 1.50001318359375 0.9255 L 1.50001318359375 0.28049999999999997 L 1.38301318359375 0.28049999999999997 L 1.38301318359375 0.022499999999999964 L 1.99201318359375 0.022499999999999964 L 1.99201318359375 0.28049999999999997 L 1.87501318359375 0.28049999999999997 L 1.87501318359375 0.9255 L 2.06251318359375 0.9255 L 2.13301318359375 0.6689999999999999 L 2.31901318359375 0.6689999999999999 L 2.31901318359375 1.188 L 1.38301318359375 1.188 M 2.434496337890625 1.188 L 2.434496337890625 0.9299999999999999 L 2.551496337890625 0.9299999999999999 L 2.551496337890625 0.28049999999999997 L 2.434496337890625 0.28049999999999997 L 2.434496337890625 0.022499999999999964 L 3.043496337890625 0.022499999999999964 L 3.043496337890625 0.28049999999999997 L 2.926496337890625 0.28049999999999997 L 2.926496337890625 0.9299999999999999 L 3.043496337890625 0.9299999999999999 L 3.043496337890625 1.188 L 2.434496337890625 1.188 M 3.554267578125 1.18875 Q 3.501017578125 1.1684999999999999 3.439517578125 1.1204999999999998 L 3.414017578125 1.188 L 3.177017578125 1.188 L 3.177017578125 0.831 L 3.412517578125 0.831 Q 3.435017578125 0.8925 3.482267578125 0.9179999999999999 Q 3.529517578125 0.9435 3.598517578125 0.9435 Q 3.640517578125 0.9435 3.670517578125 0.92625 Q 3.700517578125 0.9089999999999999 3.700517578125 0.8805 Q 3.700517578125 0.8444999999999999 3.669767578125 0.8265 Q 3.6390175781250003 0.8085 3.583517578125 0.7934999999999999 Q 3.442517578125 0.7545 3.351767578125 0.7094999999999999 Q 3.261017578125 0.6645 3.205517578125 0.5804999999999999 Q 3.150017578125 0.49649999999999994 3.150017578125 0.35849999999999993 Q 3.150017578125 0.2519999999999999 3.195767578125 0.17099999999999982 Q 3.241517578125 0.08999999999999986 3.327017578125 0.04499999999999993 Q 3.412517578125 0 3.528017578125 0 Q 3.669017578125 0 3.751517578125 0.08999999999999986 L 3.789017578125 0.020999999999999908 L 3.999017578125 0.020999999999999908 L 3.999017578125 0.37049999999999994 L 3.774017578125 0.37049999999999994 Q 3.7425175781249997 0.3044999999999999 3.704267578125 0.2789999999999999 Q 3.666017578125 0.25349999999999995 3.600017578125 0.25349999999999995 Q 3.549017578125 0.25349999999999995 3.5212675781250002 0.27149999999999996 Q 3.493517578125 0.2895 3.493517578125 0.32099999999999995 Q 3.493517578125 0.3554999999999999 3.533267578125 0.37424999999999997 Q 3.573017578125 0.3929999999999999 3.646517578125 0.4095 Q 3.777017578125 0.4394999999999999 3.867767578125 0.4837499999999999 Q 3.958517578125 0.5279999999999999 4.013267578125 0.6097499999999999 Q 4.068017578125 0.6915 4.068017578125 0.8205 Q 4.068017578125 0.9299999999999999 4.022267578125 1.0185 Q 3.976517578125 1.107 3.891767578125 1.158 Q 3.807017578125 1.2089999999999999 3.697517578125 1.2089999999999999 Q 3.607517578125 1.2089999999999999 3.554267578125 1.18875 M 4.39053515625 1.188 L 4.39053515625 0.9239999999999999 L 4.5105351562500005 0.9239999999999999 L 4.5105351562500005 0.28049999999999997 L 4.40703515625 0.28049999999999997 L 4.37553515625 0.48149999999999993 L 4.17003515625 0.48149999999999993 L 4.17003515625 0.022499999999999964 L 5.26653515625 0.022499999999999964 L 5.26653515625 0.48149999999999993 L 5.06103515625 0.48149999999999993 L 5.02953515625 0.28049999999999997 L 4.92303515625 0.28049999999999997 L 4.92303515625 0.9239999999999999 L 5.04303515625 0.9239999999999999 L 5.04303515625 1.188 L 4.39053515625 1.188 M 5.392552001953125 1.188 L 5.392552001953125 0.9299999999999999 L 5.533552001953125 0.9299999999999999 L 5.533552001953125 0.28049999999999997 L 5.392552001953125 0.28049999999999997 L 5.392552001953125 0.022499999999999964 L 6.376552001953125 0.022499999999999964 L 6.376552001953125 0.4859999999999999 L 6.189052001953125 0.4859999999999999 L 6.118552001953125 0.28049999999999997 L 5.908552001953125 0.28049999999999997 L 5.908552001953125 0.471 L 6.096052001953125 0.471 L 6.096052001953125 0.6629999999999999 L 5.908552001953125 0.6629999999999999 L 5.908552001953125 0.9299999999999999 L 6.118552001953125 0.9299999999999999 L 6.189052001953125 0.6915 L 6.376552001953125 0.6915 L 6.376552001953125 1.188 L 5.392552001953125 1.188 M 6.478563720703125 0.9299999999999999 L 6.595563720703125 0.9299999999999999 L 6.595563720703125 0.28049999999999997 L 6.478563720703125 0.28049999999999997 L 6.478563720703125 0.022499999999999964 L 7.227063720703125 0.022499999999999964 Q 7.408563720703125 0.022499999999999964 7.494063720703125 0.09599999999999986 Q 7.579563720703125 0.16949999999999998 7.579563720703125 0.33899999999999997 Q 7.579563720703125 0.45299999999999996 7.515813720703125 0.5145 Q 7.452063720703125 0.576 7.3350637207031255 0.597 Q 7.440063720703125 0.6134999999999999 7.486563720703125 0.67575 Q 7.533063720703125 0.738 7.533063720703125 0.831 L 7.533063720703125 0.9255 L 7.696563720703125 0.9255 L 7.696563720703125 1.188 L 7.461063720703125 1.188 Q 7.347063720703125 1.188 7.297563720703125 1.173 Q 7.248063720703125 1.158 7.221813720703125 1.0905 Q 7.195563720703125 1.023 7.195563720703125 0.8654999999999999 Q 7.195563720703125 0.7754999999999999 7.166313720703125 0.732 Q 7.137063720703125 0.6884999999999999 7.059063720703125 0.6884999999999999 L 6.970563720703125 0.6884999999999999 L 6.970563720703125 0.9299999999999999 L 7.087563720703125 0.9299999999999999 L 7.087563720703125 1.188 L 6.478563720703125 1.188 L 6.478563720703125 0.9299999999999999 M 7.071063720703125 0.5219999999999999 Q 7.150563720703125 0.5219999999999999 7.189563720703125 0.49349999999999994 Q 7.228563720703125 0.46499999999999997 7.228563720703125 0.3929999999999999 Q 7.228563720703125 0.3404999999999999 7.188813720703125 0.3104999999999999 Q 7.149063720703125 0.28049999999999997 7.086063720703125 0.28049999999999997 L 6.970563720703125 0.28049999999999997 L 6.970563720703125 0.5219999999999999 L 7.071063720703125 0.5219999999999999 M 8.04308203125 0.9299999999999999 L 8.18408203125 0.9299999999999999 L 8.18408203125 0.28049999999999997 L 8.06258203125 0.28049999999999997 L 8.06258203125 0.020999999999999908 L 8.65808203125 0.020999999999999908 Q 8.80508203125 0.020999999999999908 8.90558203125 0.04499999999999993 Q 9.00608203125 0.06899999999999995 9.06533203125 0.13649999999999984 Q 9.12458203125 0.20399999999999996 9.12458203125 0.3284999999999999 Q 9.12458203125 0.4155 9.07433203125 0.48 Q 9.02408203125 0.5445 8.94608203125 0.573 Q 9.04808203125 0.6164999999999999 9.096832031249999 0.6862499999999999 Q 9.145582031250001 0.756 9.145582031250001 0.8775 Q 9.145582031250001 1.026 9.02933203125 1.107 Q 8.91308203125 1.188 8.70008203125 1.188 L 8.04308203125 1.188 L 8.04308203125 0.9299999999999999 M 8.59958203125 0.4919999999999999 Q 8.68358203125 0.4919999999999999 8.72333203125 0.4687499999999999 Q 8.76308203125 0.4454999999999999 8.76308203125 0.3809999999999999 Q 8.76308203125 0.33599999999999997 8.73533203125 0.3082499999999999 Q 8.70758203125 0.28049999999999997 8.66258203125 0.28049999999999997 L 8.55908203125 0.28049999999999997 L 8.55908203125 0.4919999999999999 L 8.59958203125 0.4919999999999999 M 8.58608203125 0.9299999999999999 Q 8.67458203125 0.9299999999999999 8.722582031249999 0.9052499999999999 Q 8.770582031250001 0.8805 8.770582031250001 0.8025 Q 8.770582031250001 0.6824999999999999 8.62358203125 0.6824999999999999 Q 8.59058203125 0.6824999999999999 8.55908203125 0.6839999999999999 L 8.55908203125 0.9299999999999999 L 8.58608203125 0.9299999999999999 M 9.2536142578125 1.188 L 9.2536142578125 0.9299999999999999 L 9.3691142578125 0.9299999999999999 L 9.5701142578125 0.28049999999999997 L 9.4171142578125 0.28049999999999997 L 9.4171142578125 0.022499999999999964 L 10.143114257812499 0.022499999999999964 L 10.4026142578125 0.9299999999999999 L 10.518114257812499 0.9299999999999999 L 10.518114257812499 1.188 L 9.8626142578125 1.188 L 9.8626142578125 0.9299999999999999 L 9.9571142578125 0.9299999999999999 L 9.9256142578125 0.8054999999999999 L 9.6616142578125 0.8054999999999999 L 9.628614257812501 0.9299999999999999 L 9.768114257812499 0.9299999999999999 L 9.768114257812499 1.188 L 9.2536142578125 1.188 M 9.6991142578125 0.6285 L 9.8911142578125 0.6285 L 9.8056142578125 0.27149999999999996 L 9.6991142578125 0.6285 M 10.57812744140625 1.188 L 10.57812744140625 0.9255 L 10.69662744140625 0.9255 L 10.69662744140625 0.2789999999999999 L 10.58112744140625 0.2789999999999999 L 10.58112744140625 0.020999999999999908 L 11.11962744140625 0.020999999999999908 L 11.48412744140625 0.714 L 11.48412744140625 0.28049999999999997 L 11.36712744140625 0.28049999999999997 L 11.36712744140625 0.022499999999999964 L 11.83362744140625 0.022499999999999964 L 11.83362744140625 0.28049999999999997 L 11.71812744140625 0.28049999999999997 L 11.71812744140625 1.188 L 11.27412744140625 1.188 L 10.92762744140625 0.5445 L 10.92762744140625 0.9255 L 11.04462744140625 0.9255 L 11.04462744140625 1.188 L 10.57812744140625 1.188 M 11.968614990234375 0.9299999999999999 L 12.085614990234374 0.9299999999999999 L 12.085614990234374 0.28049999999999997 L 11.968614990234375 0.28049999999999997 L 11.968614990234375 0.022499999999999964 L 12.553614990234376 0.022499999999999964 L 12.553614990234376 0.28049999999999997 L 12.460614990234376 0.28049999999999997 L 12.460614990234376 0.5459999999999999 L 12.654114990234374 0.28049999999999997 L 12.654114990234374 0.022499999999999964 L 13.110114990234376 0.022499999999999964 L 13.110114990234376 0.28049999999999997 L 13.009614990234375 0.28049999999999997 L 12.777114990234375 0.5624999999999999 L 12.777114990234375 0.573 Q 12.895614990234375 0.573 12.963114990234375 0.6134999999999999 Q 13.030614990234374 0.6539999999999999 13.030614990234374 0.7545 L 13.030614990234374 0.873 Q 13.030614990234374 0.8955 13.043364990234375 0.91275 Q 13.056114990234375 0.9299999999999999 13.078614990234374 0.9299999999999999 L 13.162614990234374 0.9299999999999999 L 13.162614990234374 1.188 L 12.894114990234375 1.188 Q 12.648114990234376 1.188 12.648114990234376 0.963 L 12.648114990234376 0.8354999999999999 Q 12.648114990234376 0.7979999999999999 12.624114990234375 0.762 Q 12.600114990234374 0.726 12.567114990234375 0.726 L 12.460614990234376 0.726 L 12.460614990234376 0.9299999999999999 L 12.577614990234375 0.9299999999999999 L 12.577614990234375 1.188 L 11.968614990234375 1.188 L 11.968614990234375 0.9299999999999999" fill="#173054" fill-rule="nonzero"></path></g><g><path d=" M 0.02716619318181818 1.7027355468749996 Q 0.01837713068181818 1.7027355468749996 0.013716264204545454 1.6968761718749996 Q 0.009055397727272726 1.6910167968749996 0.009055397727272726 1.6814287286931815 L 0.013050426136363636 1.5823520241477271 Q 0.013316761363636362 1.5719649502840907 0.016779119318181816 1.5667714133522725 Q 0.020241477272727272 1.5615778764204542 0.029296874999999997 1.5615778764204542 L 0.4133522727272727 1.5615778764204542 Q 0.42187499999999994 1.5615778764204542 0.4256036931818182 1.5669045809659088 Q 0.42933238636363635 1.5722312855113634 0.42959872159090906 1.5823520241477271 L 0.43359374999999994 1.6814287286931815 Q 0.43359374999999994 1.6910167968749996 0.42893288352272724 1.6968761718749996 Q 0.42427201704545453 1.7027355468749996 0.41548295454545453 1.7027355468749996 Q 0.40616122159090906 1.7027355468749996 0.4004350142045454 1.6987405184659088 Q 0.39470880681818177 1.694745490056818 0.3936434659090909 1.6848910866477271 L 0.38538707386363635 1.6084528764204542 L 0.24955610795454544 1.6084528764204542 L 0.24955610795454544 1.9712014559659088 L 0.3201349431818182 1.9712014559659088 Q 0.33025568181818177 1.9712014559659088 0.33465021306818177 1.9785256747159088 Q 0.33904474431818177 1.9858498934659088 0.33904474431818177 1.9957042968749996 Q 0.33904474431818177 2.0044933593749996 0.333984375 2.011284907670454 Q 0.3289240056818182 2.018076455965909 0.3196022727272727 2.018076455965909 L 0.11772017045454544 2.018076455965909 Q 0.10839843749999999 2.018076455965909 0.10320490056818181 2.011284907670454 Q 0.09801136363636363 2.0044933593749996 0.09801136363636363 1.9957042968749996 Q 0.09801136363636363 1.9858498934659088 0.10253906249999999 1.9785256747159088 Q 0.10706676136363635 1.9712014559659088 0.11718749999999999 1.9712014559659088 L 0.1875 1.9712014559659088 L 0.1875 1.6084528764204542 L 0.05699573863636363 1.6084528764204542 L 0.049005681818181816 1.6848910866477271 Q 0.047940340909090905 1.6950118252840907 0.04221413352272727 1.6988736860795453 Q 0.03648792613636363 1.7027355468749996 0.02716619318181818 1.7027355468749996 L 0.02716619318181818 1.7027355468749996 M 0.6425337357954545 1.7671886718749996 Q 0.7032581676136362 1.7671886718749996 0.7496004971590908 1.756668430397727 Q 0.7959428267045454 1.7461481889204542 0.7959428267045454 1.6880871093749996 Q 0.7959428267045454 1.6289606889204542 0.7438742897727272 1.6187067826704542 Q 0.6918057528409091 1.6084528764204542 0.6326793323863635 1.6084528764204542 L 0.5935280539772727 1.6084528764204542 L 0.5935280539772727 1.7671886718749996 L 0.6425337357954545 1.7671886718749996 M 0.8606622869318181 1.6854237571022725 Q 0.8606622869318181 1.7397561434659088 0.8252397017045454 1.7642589843749996 Q 0.7898171164772727 1.7887618252840907 0.7381480823863635 1.7978172230113634 Q 0.7634499289772727 1.809003302556818 0.7823597301136362 1.8271140980113634 Q 0.80126953125 1.8452248934659088 0.8132546164772727 1.874255433238636 L 0.8532049005681817 1.970935120738636 L 0.8923561789772727 1.970935120738636 Q 0.9083362926136362 1.970935120738636 0.9147283380681817 1.9765281605113634 Q 0.9211203835227272 1.9821212002840907 0.9211203835227272 1.9957042968749996 Q 0.9211203835227272 2.0106190696022725 0.9131303267045454 2.014480930397727 Q 0.9051402698863635 2.0183427911931817 0.8926225142045454 2.0183427911931817 L 0.7770330255681818 2.018076455965909 Q 0.7677112926136362 2.018076455965909 0.7625177556818181 2.011284907670454 Q 0.75732421875 2.0044933593749996 0.75732421875 1.9957042968749996 Q 0.75732421875 1.9858498934659088 0.7618519176136362 1.9783925071022723 Q 0.7663796164772727 1.970935120738636 0.7765003551136362 1.970935120738636 L 0.78955078125 1.970935120738636 L 0.7597212357954545 1.8955622514204542 Q 0.7477361505681818 1.865466370738636 0.720703125 1.8400313565340907 Q 0.6936700994318181 1.8145963423295453 0.6539861505681818 1.8145963423295453 L 0.5935280539772727 1.8145963423295453 L 0.5935280539772727 1.970935120738636 L 0.6638405539772727 1.970935120738636 Q 0.6739612926136362 1.970935120738636 0.6784889914772727 1.9783925071022723 Q 0.6830166903409091 1.9858498934659088 0.6830166903409091 1.9957042968749996 Q 0.6830166903409091 2.0044933593749996 0.6778231534090908 2.011284907670454 Q 0.6726296164772727 2.018076455965909 0.6633078835227272 2.018076455965909 L 0.47234552556818177 2.018076455965909 Q 0.4630237926136363 2.018076455965909 0.4578302556818181 2.011284907670454 Q 0.45263671874999994 2.0044933593749996 0.45263671874999994 1.9957042968749996 Q 0.45263671874999994 1.9858498934659088 0.4571644176136363 1.9783925071022723 Q 0.46169211647727265 1.970935120738636 0.4718128551136363 1.970935120738636 L 0.5312056107954545 1.970935120738636 L 0.5312056107954545 1.6084528764204542 L 0.4827325994318181 1.6084528764204542 Q 0.4726118607954545 1.6084528764204542 0.4680841619318181 1.6011286576704542 Q 0.46355646306818177 1.5938044389204542 0.46355646306818177 1.5839500355113634 Q 0.46355646306818177 1.5751609730113634 0.46874999999999994 1.5683694247159088 Q 0.4739435369318181 1.5615778764204542 0.4832652698863636 1.5615778764204542 L 0.6409357244318181 1.5615778764204542 Q 0.7274946732954545 1.5615778764204542 0.7940784801136362 1.5808871803977271 Q 0.8606622869318181 1.6001964843749996 0.8606622869318181 1.6854237571022725 L 0.8606622869318181 1.6854237571022725 M 1.1817294034090908 2.024734836647727 Q 1.1018288352272725 2.024734836647727 1.0509588068181817 1.980390021306818 Q 1.0000887784090908 1.9360452059659088 1.0000887784090908 1.8572099786931815 L 1.0000887784090908 1.6084528764204542 L 0.959872159090909 1.6084528764204542 Q 0.9497514204545453 1.6084528764204542 0.945223721590909 1.6011286576704542 Q 0.9406960227272726 1.5938044389204542 0.9406960227272726 1.5839500355113634 Q 0.9406960227272726 1.5751609730113634 0.9458895596590908 1.5683694247159088 Q 0.951083096590909 1.5615778764204542 0.9604048295454545 1.5615778764204542 L 1.115944602272727 1.5615778764204542 Q 1.1252663352272725 1.5615778764204542 1.1303267045454544 1.5683694247159088 Q 1.1353870738636362 1.5751609730113634 1.1353870738636362 1.5839500355113634 Q 1.1353870738636362 1.5938044389204542 1.1309925426136362 1.6011286576704542 Q 1.1265980113636362 1.6084528764204542 1.1164772727272725 1.6084528764204542 L 1.062411221590909 1.6084528764204542 L 1.062411221590909 1.8572099786931815 Q 1.062411221590909 1.9139393821022725 1.0934392755681817 1.9455001065340907 Q 1.1244673295454544 1.9770608309659088 1.1817294034090908 1.9770608309659088 Q 1.2339311079545454 1.9770608309659088 1.2652254971590908 1.9435025923295453 Q 1.2965198863636362 1.9099443536931815 1.2965198863636362 1.857742649147727 L 1.2965198863636362 1.6084528764204542 L 1.2456498579545454 1.6084528764204542 Q 1.2355291193181817 1.6084528764204542 1.2310014204545454 1.6011286576704542 Q 1.226473721590909 1.5938044389204542 1.226473721590909 1.5839500355113634 Q 1.226473721590909 1.5751609730113634 1.231667258522727 1.5683694247159088 Q 1.2368607954545454 1.5615778764204542 1.2461825284090908 1.5615778764204542 L 1.393465909090909 1.5615778764204542 Q 1.4027876420454544 1.5615778764204542 1.4079811789772725 1.5683694247159088 Q 1.4131747159090908 1.5751609730113634 1.4131747159090908 1.5839500355113634 Q 1.4131747159090908 1.5938044389204542 1.4086470170454544 1.6011286576704542 Q 1.404119318181818 1.6084528764204542 1.3939985795454544 1.6084528764204542 L 1.3476562499999998 1.6084528764204542 L 1.3476562499999998 1.857742649147727 Q 1.3476562499999998 1.9317838423295453 1.301580255681818 1.978259339488636 Q 1.2555042613636362 2.024734836647727 1.1817294034090908 2.024734836647727 L 1.1817294034090908 2.024734836647727 M 1.6383611505681817 1.5970004616477271 Q 1.574440696022727 1.5970004616477271 1.5536665482954544 1.6211037997159088 Q 1.5328924005681817 1.6452071377840907 1.5328924005681817 1.6753030184659088 Q 1.5328924005681817 1.7011375355113634 1.5508700284090908 1.7169844815340907 Q 1.5688476562499998 1.732831427556818 1.6045365767045454 1.741620490056818 L 1.6809747869318181 1.7605302911931815 Q 1.7334428267045454 1.7735807173295453 1.7664683948863635 1.8032770951704542 Q 1.7994939630681817 1.8329734730113634 1.7994939630681817 1.8960949218749996 Q 1.7994939630681817 1.965075745738636 1.7448952414772725 1.9951716264204542 Q 1.6902965198863635 2.0252675071022725 1.620516690340909 2.0252675071022725 Q 1.5922851562499998 2.0252675071022725 1.562721946022727 2.017810120738636 Q 1.5331587357954544 2.0103527343749996 1.5075905539772725 1.9927746093749996 Q 1.5065252130681817 2.0018300071022725 1.5019975142045454 2.0132824218749996 Q 1.497469815340909 2.024734836647727 1.4884144176136362 2.024734836647727 Q 1.4788263494318181 2.024734836647727 1.4729669744318181 2.020739808238636 Q 1.4671075994318181 2.016744779829545 1.466042258522727 2.0076893821022725 L 1.4508611505681817 1.8755871093749996 Q 1.4508611505681817 1.8649337002840907 1.457253196022727 1.8597401633522725 Q 1.4636452414772727 1.8545466264204542 1.4764293323863635 1.8545466264204542 Q 1.4844193892045454 1.8545466264204542 1.4905450994318181 1.859207492897727 Q 1.4966708096590908 1.8638683593749996 1.4977361505681817 1.8718584161931815 L 1.5019975142045454 1.9088790127840907 Q 1.5046608664772725 1.9336481889204542 1.5387517755681817 1.955887180397727 Q 1.5728426846590908 1.9781261718749996 1.6138583096590908 1.9781261718749996 Q 1.659401633522727 1.9781261718749996 1.7021484374999998 1.9618797230113634 Q 1.7448952414772725 1.945633274147727 1.7448952414772725 1.895828586647727 Q 1.7448952414772725 1.8598733309659088 1.7231889204545454 1.8457575639204542 Q 1.7014825994318181 1.8316417968749996 1.6716530539772725 1.8231190696022725 L 1.5842950994318181 1.7983498934659088 Q 1.5366210937499998 1.7876964843749996 1.5053267045454544 1.7603971235795453 Q 1.474032315340909 1.7330977627840907 1.474032315340909 1.6795643821022725 Q 1.474032315340909 1.6212369673295453 1.5197088068181817 1.5880782315340907 Q 1.5653852982954544 1.554919495738636 1.6295720880681817 1.554919495738636 Q 1.6572709517045454 1.554919495738636 1.686434659090909 1.5618442116477271 Q 1.7155983664772725 1.568768927556818 1.734774502840909 1.5847490411931815 Q 1.734774502840909 1.5735629616477271 1.7418323863636362 1.564374396306818 Q 1.7488902698863635 1.5551858309659088 1.7598100142045454 1.5551858309659088 Q 1.767800071022727 1.5551858309659088 1.7739257812499998 1.559979865056818 Q 1.7800514914772725 1.5647738991477271 1.7811168323863635 1.5727639559659088 L 1.7829811789772725 1.6784990411931815 Q 1.7829811789772725 1.6899514559659088 1.7760564630681817 1.6951449928977271 Q 1.7691317471590908 1.7003385298295453 1.7584783380681817 1.7003385298295453 Q 1.7491566051136362 1.7003385298295453 1.7431640624999998 1.6963435014204542 Q 1.7371715198863635 1.6923484730113634 1.7361061789772725 1.6835594105113634 L 1.7350408380681817 1.6526645241477271 Q 1.7315784801136362 1.6225686434659088 1.7020152698863635 1.609784552556818 Q 1.6724520596590908 1.5970004616477271 1.6383611505681817 1.5970004616477271 L 1.6383611505681817 1.5970004616477271 M 1.8539595170454544 1.7027355468749996 Q 1.8451704545454544 1.7027355468749996 1.8405095880681817 1.6968761718749996 Q 1.835848721590909 1.6910167968749996 1.835848721590909 1.6814287286931815 L 1.8398437499999998 1.5823520241477271 Q 1.8401100852272727 1.5719649502840907 1.8435724431818181 1.5667714133522725 Q 1.8470348011363635 1.5615778764204542 1.8560901988636362 1.5615778764204542 L 2.240145596590909 1.5615778764204542 Q 2.2486683238636362 1.5615778764204542 2.2523970170454546 1.5669045809659088 Q 2.2561257102272725 1.5722312855113634 2.2563920454545454 1.5823520241477271 L 2.2603870738636362 1.6814287286931815 Q 2.2603870738636362 1.6910167968749996 2.2557262073863633 1.6968761718749996 Q 2.251065340909091 1.7027355468749996 2.242276278409091 1.7027355468749996 Q 2.2329545454545454 1.7027355468749996 2.2272283380681817 1.6987405184659088 Q 2.221502130681818 1.694745490056818 2.220436789772727 1.6848910866477271 L 2.2121803977272725 1.6084528764204542 L 2.0763494318181817 1.6084528764204542 L 2.0763494318181817 1.9712014559659088 L 2.1469282670454546 1.9712014559659088 Q 2.157049005681818 1.9712014559659088 2.161443536931818 1.9785256747159088 Q 2.165838068181818 1.9858498934659088 2.165838068181818 1.9957042968749996 Q 2.165838068181818 2.0044933593749996 2.1607776988636362 2.011284907670454 Q 2.1557173295454546 2.018076455965909 2.146395596590909 2.018076455965909 L 1.9445134943181817 2.018076455965909 Q 1.9351917613636362 2.018076455965909 1.9299982244318181 2.011284907670454 Q 1.9248046874999998 2.0044933593749996 1.9248046874999998 1.9957042968749996 Q 1.9248046874999998 1.9858498934659088 1.9293323863636362 1.9785256747159088 Q 1.9338600852272725 1.9712014559659088 1.9439808238636362 1.9712014559659088 L 2.0142933238636362 1.9712014559659088 L 2.0142933238636362 1.6084528764204542 L 1.8837890624999998 1.6084528764204542 L 1.8757990056818181 1.6848910866477271 Q 1.874733664772727 1.6950118252840907 1.8690074573863635 1.6988736860795453 Q 1.8632812499999998 1.7027355468749996 1.8539595170454544 1.7027355468749996 L 1.8539595170454544 1.7027355468749996 M 2.8607066761363633 1.882245490056818 Q 2.8607066761363633 1.9546886718749996 2.7993164062499996 1.9863825639204542 Q 2.7379261363636362 2.018076455965909 2.6652166193181817 2.018076455965909 L 2.423650568181818 2.018076455965909 Q 2.4143288352272725 2.018076455965909 2.409135298295454 2.011284907670454 Q 2.4039417613636362 2.0044933593749996 2.4039417613636362 1.9957042968749996 Q 2.4039417613636362 1.9858498934659088 2.4084694602272725 1.9785256747159088 Q 2.4129971590909087 1.9712014559659088 2.4231178977272725 1.9712014559659088 L 2.4934303977272725 1.9712014559659088 L 2.4934303977272725 1.6084528764204542 L 2.4367009943181817 1.6084528764204542 Q 2.4273792613636362 1.6084528764204542 2.422318892045454 1.6016613281249996 Q 2.4172585227272725 1.5948697798295453 2.4172585227272725 1.5860807173295453 Q 2.4172585227272725 1.5762263139204542 2.4216530539772725 1.5689020951704542 Q 2.4260475852272725 1.5615778764204542 2.4361683238636362 1.5615778764204542 L 2.653764204545454 1.5615778764204542 Q 2.719282670454545 1.5615778764204542 2.7674893465909087 1.5860807173295453 Q 2.8156960227272725 1.610583558238636 2.8156960227272725 1.6774337002840907 Q 2.8156960227272725 1.7107256036931815 2.7966530539772725 1.732165589488636 Q 2.7776100852272725 1.7536055752840907 2.751509232954545 1.7605302911931815 Q 2.795720880681818 1.7666560014204542 2.828213778409091 1.7952870383522725 Q 2.8607066761363633 1.8239180752840907 2.8607066761363633 1.882245490056818 L 2.8607066761363633 1.882245490056818 M 2.7941228693181817 1.876386115056818 Q 2.7941228693181817 1.8161943536931815 2.757768110795454 1.8018122514204542 Q 2.721413352272727 1.787430149147727 2.675603693181818 1.787430149147727 L 2.555752840909091 1.787430149147727 L 2.555752840909091 1.9712014559659088 L 2.6660156249999996 1.9712014559659088 Q 2.7219460227272725 1.9712014559659088 2.758034446022727 1.9505604758522725 Q 2.7941228693181817 1.929919495738636 2.7941228693181817 1.876386115056818 L 2.7941228693181817 1.876386115056818 M 2.762162642045454 1.6806297230113634 Q 2.762162642045454 1.639880433238636 2.7335316051136362 1.6241666548295453 Q 2.704900568181818 1.6084528764204542 2.6588245738636362 1.6084528764204542 L 2.555752840909091 1.6084528764204542 L 2.555752840909091 1.7530729048295453 L 2.675603693181818 1.7530729048295453 Q 2.707830255681818 1.7530729048295453 2.7349964488636362 1.7360274502840907 Q 2.762162642045454 1.718981995738636 2.762162642045454 1.6806297230113634 L 2.762162642045454 1.6806297230113634 M 2.8797496448863633 1.9957042968749996 Q 2.8797496448863633 1.9858498934659088 2.8842773437499996 1.9785256747159088 Q 2.8888050426136362 1.9712014559659088 2.8989257812499996 1.9712014559659088 L 2.9359463778409087 1.9712014559659088 L 3.112260298295454 1.5730302911931815 Q 3.116255326704545 1.563708558238636 3.124245383522727 1.5561180042613634 Q 3.1322354403409087 1.5485274502840907 3.1450195312499996 1.5485274502840907 Q 3.158336292613636 1.5485274502840907 3.1653941761363633 1.556384339488636 Q 3.1724520596590904 1.5642412286931815 3.1764470880681817 1.5740956321022725 L 3.3365145596590904 1.9712014559659088 L 3.383922230113636 1.9712014559659088 Q 3.3940429687499996 1.9712014559659088 3.3984374999999996 1.9785256747159088 Q 3.4028320312499996 1.9858498934659088 3.4028320312499996 1.9957042968749996 Q 3.4028320312499996 2.0044933593749996 3.397771661931818 2.011284907670454 Q 3.392711292613636 2.018076455965909 3.3833895596590904 2.018076455965909 L 3.2116033380681817 2.018076455965909 Q 3.202281605113636 2.018076455965909 3.197088068181818 2.011284907670454 Q 3.1918945312499996 2.0044933593749996 3.1918945312499996 1.9957042968749996 Q 3.1918945312499996 1.9858498934659088 3.196422230113636 1.9785256747159088 Q 3.2009499289772725 1.9712014559659088 3.211070667613636 1.9712014559659088 L 3.2693980823863633 1.9712014559659088 L 3.2299804687499996 1.8670643821022725 L 3.0368874289772725 1.8670643821022725 L 2.995072798295454 1.9712014559659088 L 3.0446111505681817 1.9712014559659088 Q 3.054731889204545 1.9712014559659088 3.0592595880681817 1.9785256747159088 Q 3.063787286931818 1.9858498934659088 3.063787286931818 1.9957042968749996 Q 3.063787286931818 2.0044933593749996 3.0585937499999996 2.011284907670454 Q 3.0534002130681817 2.018076455965909 3.044078480113636 2.018076455965909 L 2.899458451704545 2.018076455965909 Q 2.8901367187499996 2.018076455965909 2.8849431818181817 2.011284907670454 Q 2.8797496448863633 2.0044933593749996 2.8797496448863633 1.9957042968749996 L 2.8797496448863633 1.9957042968749996 M 3.0534002130681817 1.8260487571022725 L 3.214799360795454 1.8260487571022725 L 3.136763139204545 1.6188399502840907 L 3.0534002130681817 1.8260487571022725 M 3.412819602272727 1.5839500355113634 Q 3.412819602272727 1.5751609730113634 3.418013139204545 1.5683694247159088 Q 3.4232066761363633 1.5615778764204542 3.4325284090909087 1.5615778764204542 L 3.5558416193181817 1.5615778764204542 Q 3.562233664772727 1.5615778764204542 3.5656960227272725 1.563708558238636 Q 3.569158380681818 1.565839240056818 3.5715553977272725 1.5708996093749996 L 3.8056640624999996 1.904617649147727 L 3.8056640624999996 1.6084528764204542 L 3.7577237215909087 1.6084528764204542 Q 3.747602982954545 1.6084528764204542 3.7430752840909087 1.6011286576704542 Q 3.7385475852272725 1.5938044389204542 3.7385475852272725 1.5839500355113634 Q 3.7385475852272725 1.5751609730113634 3.7437411221590904 1.5683694247159088 Q 3.7489346590909087 1.5615778764204542 3.758256392045454 1.5615778764204542 L 3.9132634943181817 1.5615778764204542 Q 3.9225852272727266 1.5615778764204542 3.9276455965909087 1.5683694247159088 Q 3.9327059659090904 1.5751609730113634 3.9327059659090904 1.5839500355113634 Q 3.9327059659090904 1.5938044389204542 3.9283114346590904 1.6011286576704542 Q 3.9239169034090904 1.6084528764204542 3.9137961647727266 1.6084528764204542 L 3.860795454545454 1.6084528764204542 L 3.860795454545454 2.003960688920454 Q 3.860795454545454 2.014081427556818 3.8537375710227266 2.021006143465909 Q 3.8466796874999996 2.0279308593749996 3.8368252840909087 2.0279308593749996 Q 3.8283025568181817 2.0279308593749996 3.822310014204545 2.0238026633522725 Q 3.8163174715909087 2.019674467329545 3.812322443181818 2.013815092329545 L 3.5411931818181817 1.630292365056818 L 3.5411931818181817 1.9712014559659088 L 3.5880681818181817 1.9712014559659088 Q 3.598188920454545 1.9712014559659088 3.6027166193181817 1.9785256747159088 Q 3.607244318181818 1.9858498934659088 3.607244318181818 1.9957042968749996 Q 3.607244318181818 2.0044933593749996 3.6020507812499996 2.011284907670454 Q 3.5968572443181817 2.018076455965909 3.587535511363636 2.018076455965909 L 3.4325284090909087 2.018076455965909 Q 3.4232066761363633 2.018076455965909 3.418013139204545 2.011284907670454 Q 3.412819602272727 2.0044933593749996 3.412819602272727 1.9957042968749996 Q 3.412819602272727 1.9858498934659088 3.4173473011363633 1.9785256747159088 Q 3.4218749999999996 1.9712014559659088 3.4319957386363633 1.9712014559659088 L 3.484996448863636 1.9712014559659088 L 3.484996448863636 1.6084528764204542 L 3.4319957386363633 1.6084528764204542 Q 3.4218749999999996 1.6084528764204542 3.4173473011363633 1.6011286576704542 Q 3.412819602272727 1.5938044389204542 3.412819602272727 1.5839500355113634 L 3.412819602272727 1.5839500355113634 M 3.9522816051136362 1.9957042968749996 Q 3.9522816051136362 1.9858498934659088 3.9568093039772725 1.9785256747159088 Q 3.9613370028409087 1.9712014559659088 3.9714577414772725 1.9712014559659088 L 4.02978515625 1.9712014559659088 L 4.02978515625 1.6084528764204542 L 3.9714577414772725 1.6084528764204542 Q 3.9613370028409087 1.6084528764204542 3.9568093039772725 1.6011286576704542 Q 3.9522816051136362 1.5938044389204542 3.9522816051136362 1.5839500355113634 Q 3.9522816051136362 1.5751609730113634 3.957475142045454 1.5683694247159088 Q 3.9626686789772725 1.5615778764204542 3.971990411931818 1.5615778764204542 L 4.145374644886363 1.5615778764204542 Q 4.154696377840909 1.5615778764204542 4.159889914772727 1.5683694247159088 Q 4.165083451704545 1.5751609730113634 4.165083451704545 1.5839500355113634 Q 4.165083451704545 1.5938044389204542 4.160688920454545 1.6011286576704542 Q 4.156294389204545 1.6084528764204542 4.146173650568182 1.6084528764204542 L 4.092107599431818 1.6084528764204542 L 4.092107599431818 1.7938221946022725 L 4.303045099431818 1.6188399502840907 Q 4.304110440340909 1.6177746093749996 4.305575284090909 1.6155107599431815 Q 4.307040127840909 1.6132469105113634 4.307040127840909 1.610583558238636 Q 4.307040127840909 1.607653870738636 4.304776278409091 1.606189026988636 Q 4.3025124289772725 1.604724183238636 4.298251065340909 1.604724183238636 L 4.279607599431818 1.604724183238636 Q 4.27001953125 1.604724183238636 4.265358664772727 1.599530646306818 Q 4.260697798295454 1.5943371093749996 4.260697798295454 1.5839500355113634 Q 4.260697798295454 1.5751609730113634 4.265758167613636 1.5683694247159088 Q 4.270818536931818 1.5615778764204542 4.280140269886363 1.5615778764204542 L 4.421031605113636 1.5615778764204542 Q 4.430353338068182 1.5615778764204542 4.435413707386363 1.5683694247159088 Q 4.440474076704545 1.5751609730113634 4.440474076704545 1.5839500355113634 Q 4.440474076704545 1.5938044389204542 4.436079545454545 1.6011286576704542 Q 4.431685014204545 1.6084528764204542 4.421564275568182 1.6084528764204542 L 4.379483309659091 1.6084528764204542 L 4.218084161931818 1.747479865056818 L 4.427423650568182 1.9712014559659088 L 4.465243252840908 1.9712014559659088 Q 4.4753639914772725 1.9712014559659088 4.4797585227272725 1.9785256747159088 Q 4.4841530539772725 1.9858498934659088 4.4841530539772725 1.9957042968749996 Q 4.4841530539772725 2.0044933593749996 4.479092684659091 2.011284907670454 Q 4.474032315340908 2.018076455965909 4.464710582386363 2.018076455965909 L 4.301979758522727 2.018076455965909 Q 4.292658025568182 2.018076455965909 4.28759765625 2.011284907670454 Q 4.282537286931818 2.0044933593749996 4.282537286931818 1.9957042968749996 Q 4.282537286931818 1.9858498934659088 4.286931818181818 1.9785256747159088 Q 4.291326349431818 1.9712014559659088 4.301447088068182 1.9712014559659088 L 4.354447798295454 1.9712014559659088 L 4.178133877840909 1.7754450639204542 L 4.092107599431818 1.8417625355113634 L 4.092107599431818 1.9712014559659088 L 4.1677468039772725 1.9712014559659088 Q 4.177867542613636 1.9712014559659088 4.1823952414772725 1.9785256747159088 Q 4.186922940340909 1.9858498934659088 4.186922940340909 1.9957042968749996 Q 4.186922940340909 2.0044933593749996 4.181729403409091 2.011284907670454 Q 4.1765358664772725 2.018076455965909 4.167214133522727 2.018076455965909 L 3.971990411931818 2.018076455965909 Q 3.9626686789772725 2.018076455965909 3.957475142045454 2.011284907670454 Q 3.9522816051136362 2.0044933593749996 3.9522816051136362 1.9957042968749996 L 3.9522816051136362 1.9957042968749996" fill="#173054" fill-rule="nonzero"></path></g><g clip-path="url(#SvgjsClipPath1003)"><g clip-path="url(#SvgjsClipPath1001d5b059a3-8e52-4faa-982a-431ec9ff51ae)"><path d=" M 5.244040869604661 -7.1427039569883215 L 0.5466016367463501 -7.1427039569883215 C 0.22983018073660796 -6.555761921475286 0.0433898863893991 -5.907397580408925 0 -5.2418433556053925 L 5.94852648722245 -5.2418433556053925 C 5.89030579720838 -5.927599556257548 5.646798179096278 -6.584637863116225 5.244040869604661 -7.1427039569883215 Z" fill="#3a868f" transform="matrix(1,0,0,1,0,0)" fill-rule="nonzero"></path></g><g clip-path="url(#SvgjsClipPath1001d5b059a3-8e52-4faa-982a-431ec9ff51ae)"><path d=" M 1.0113954022160847 -7.83676818973011 L 4.60416783821808 -7.83676818973011 C 3.9169423676981547 -8.419447356732904 3.0451959753839586 -8.739266198395303 2.1441999382375903 -8.73926011999196 C 2.0832348367129767 -8.73926011999196 2.0233118736759623 -8.733007289066357 1.9623467721513423 -8.729880873603559 C 1.6055151293333472 -8.477673021719905 1.28546942493821 -8.177093110852365 1.0113954022160847 -7.83676818973011 Z" fill="#3a868f" transform="matrix(1,0,0,1,0,0)" fill-rule="nonzero"></path></g><g clip-path="url(#SvgjsClipPath1001d5b059a3-8e52-4faa-982a-431ec9ff51ae)"><path d=" M 1.0457859723068872 -1.953375357982675 C 1.31216549858388 -1.6315057405924982 1.6204217406531687 -1.3467323503920507 1.9623467721513423 -1.106637836807451 C 2.0233118736759623 -1.1035114213446402 2.0832348367129767 -1.0972585904190382 2.1441999382375903 -1.0972585904190382 C 3.020459853770334 -1.0971301762809524 3.8698930837575833 -1.399539449708696 4.548934498375259 -1.953375357982675 Z" fill="#3a868f" transform="matrix(1,0,0,1,0,0)" fill-rule="nonzero"></path></g><g clip-path="url(#SvgjsClipPath1001d5b059a3-8e52-4faa-982a-431ec9ff51ae)"><path d=" M 5.327411948612682 -7.83676818973011 L 8.29177487659171 -7.83676818973011 C 7.4070637391196765 -8.943356185308193 6.066796269733124 -9.587121801953014 4.6500219316724944 -9.585997641167197 C 4.00411583223461 -9.586357293955285 3.3652328764726582 -9.452014405757568 2.774172653991975 -9.191548223610486 C 3.755706305074787 -9.046951497314863 4.657415846331537 -8.568493373382708 5.327411948612682 -7.83676818973011 Z" fill="#173054" transform="matrix(1,0,0,1,0,0)" fill-rule="nonzero"></path></g><g clip-path="url(#SvgjsClipPath1001d5b059a3-8e52-4faa-982a-431ec9ff51ae)"><path d=" M 5.284684270621066 -1.953375357982675 C 4.619938919396388 -1.2474170773762872 3.7365451654892383 -0.786260570764739 2.7772990694547723 -0.6444494175567144 C 3.368393160478705 -0.3841477001603888 4.007277680612707 -0.24998195093225206 4.653148347135293 -0.25052106924379913 C 6.049539957206677 -0.24907800653055645 7.372947383691884 -0.8740629010036258 8.25894751423229 -1.953375357982675 Z" fill="#173054" transform="matrix(1,0,0,1,0,0)" fill-rule="nonzero"></path></g><g clip-path="url(#SvgjsClipPath1001d5b059a3-8e52-4faa-982a-431ec9ff51ae)"><path d=" M 5.845875846193826 -7.1427039569883215 C 6.194890277691644 -6.565674188668584 6.402704725858505 -5.914379423279655 6.452400445977184 -5.2418433556053925 L 9.302649209563981 -5.2418433556053925 C 9.259259323174586 -5.907397580408925 9.07281902882737 -6.555761921475286 8.75604757281763 -7.1427039569883215 Z" fill="#3a868f" transform="matrix(1,0,0,1,0,0)" fill-rule="nonzero"></path></g><g clip-path="url(#SvgjsClipPath1001d5b059a3-8e52-4faa-982a-431ec9ff51ae)"><path d=" M 9.300043863344987 -4.547779122863597 L 6.450316169001998 -4.547779122863597 C 6.3927035398552725 -3.873297655322321 6.176101805986806 -3.222063917961794 5.818259176272422 -2.6474395907244705 L 8.727388764408635 -2.6474395907244705 C 9.053757909162245 -3.231891099091727 9.249155734438915 -3.8803131816977663 9.300043863344987 -4.547779122863603 Z" fill="#3a868f" transform="matrix(1,0,0,1,0,0)" fill-rule="nonzero"></path></g><g clip-path="url(#SvgjsClipPath1001d5b059a3-8e52-4faa-982a-431ec9ff51ae)"><path d=" M 0.0020842769751985434 -4.547779122863597 C 0.05386877950007907 -3.8804109779668057 0.24939849122378333 -3.2321411064610235 0.5752604451553631 -2.6474395907244705 L 5.21277671497665 -2.6474395907244705 C 5.626669283312411 -3.202068492352381 5.881411987663034 -3.859102893177493 5.949568625710063 -4.547779122863603 Z" fill="#3a868f" transform="matrix(1,0,0,1,0,0)" fill-rule="nonzero"></path></g></g></g><defs><clipPath id="SvgjsClipPath1003"><path d=" M 0 -9.585997641167197 h 9.303170278807787 v 9.335997641167197 h -9.303170278807787 Z"></path></clipPath><clipPath id="SvgjsClipPath1001d5b059a3-8e52-4faa-982a-431ec9ff51ae"><path d=" M 0 -9.585997641167197 L 9.303170278807787 -9.585997641167197 L 9.303170278807787 -0.25 L 0 -0.25 Z"></path></clipPath></defs></svg>